<svg xmlns="http://www.w3.org/2000/svg" version="1.1" xmlns:xlink="http://www.w3.org/1999/xlink" width="200" height="200"><svg xmlns="http://www.w3.org/2000/svg" version="1.1" xmlns:xlink="http://www.w3.org/1999/xlink" viewBox="0 0 200 200"><rect width="200" height="200" fill="url('#gradient')"></rect><defs><linearGradient id="SvgjsLinearGradient1001" gradientTransform="rotate(261 0.5 0.5)"><stop offset="0%" stop-color="#2c3448"></stop><stop offset="100%" stop-color="#cbd1db"></stop></linearGradient></defs><g><g fill="#2c3448" transform="matrix(7.225401803214425,0,0,7.225401803214425,10.222625253346777,151.37686546453537)" stroke="#27354b" stroke-width="0.2"><path d="M3.65-14.22L6.28-8.05L8.90-14.22L12.60-14.22L8.02-5.11L8.02 0L4.54 0L4.54-5.11L-0.03-14.22L3.65-14.22ZM21.45-4.81L24.85-4.81Q24.79-3.33 24.05-2.19Q23.32-1.05 22.00-0.43Q20.67 0.20 18.97 0.20L18.97 0.20Q16.17 0.20 14.56-1.63Q12.95-3.46 12.95-6.79L12.95-6.79L12.95-7.49Q12.95-9.58 13.68-11.15Q14.40-12.71 15.77-13.57Q17.14-14.42 18.94-14.42L18.94-14.42Q21.52-14.42 23.10-13.06Q24.67-11.70 24.88-9.31L24.88-9.31L21.46-9.31Q21.43-10.61 20.81-11.17Q20.20-11.74 18.94-11.74L18.94-11.74Q17.66-11.74 17.06-10.78Q16.46-9.82 16.44-7.72L16.44-7.72L16.44-6.72Q16.44-4.44 17.01-3.47Q17.58-2.49 18.97-2.49L18.97-2.49Q20.16-2.49 20.78-3.05Q21.41-3.60 21.45-4.81L21.45-4.81Z"></path></g></g></svg><style>@media (prefers-color-scheme: light) { :root { filter: contrast(1) brightness(1); } }
@media (prefers-color-scheme: dark) { :root { filter: none; } }
</style></svg>